<svg width="42" height="42" viewBox="0 0 42 42" fill="none" xmlns="http://www.w3.org/2000/svg">
    <path
        d="M8.59098 9.72202C9.4764 10.6241 10.7261 11.1863 12.1111 11.1863C14.7958 11.1863 16.9722 9.07389 16.9722 6.46814C16.9722 3.86238 14.7958 1.75 12.1111 1.75C10.3404 1.75 8.79085 2.66888 7.94097 4.04215C7.19447 5.24838 6.07475 6.46814 4.625 6.46814C3.17525 6.46814 2 7.60882 2 9.01593V37.6264C2 39.0754 3.21022 40.25 4.70309 40.25H37.7969C39.2898 40.25 40.5 39.0754 40.5 37.6264V9.09172C40.5 7.64275 39.2898 6.46814 37.7969 6.46814H35.4444M26.869 9.72202C27.7544 10.6241 29.0041 11.1863 30.3891 11.1863C33.0738 11.1863 35.2502 9.07389 35.2502 6.46814C35.2502 3.86238 33.0738 1.75 30.3891 1.75C28.6464 1.75 27.1178 2.64011 26.2597 3.97747C25.4706 5.20743 24.3178 6.46814 22.8249 6.46814H17.1669M5.88886 16.4704H40.3055M15.7824 26.0761C15.9033 23.9136 20.1419 21.9045 20.7862 25.5306C21.1809 27.7516 18.9714 30.1486 15.6818 32.1087C15.027 32.4988 15.2425 33.5281 15.9971 33.5222L21.1887 33.4817M24.2722 25.0284L26.2309 23.0752C26.6817 22.6256 27.4557 22.8837 27.4476 23.481L27.4476 33.5222"
        stroke="black" stroke-width="2" stroke-linecap="round" />
</svg>