<svg width="40" height="40" viewBox="0 0 40 40" fill="none" xmlns="http://www.w3.org/2000/svg">
    <path
        d="M29.7022 19.2958C29.2529 16.9441 28.6463 14.6251 27.8865 12.3546C27.749 11.9635 27.5879 11.5811 27.4042 11.2095L27.2787 10.986L27.2355 10.9154C27.2104 10.868 27.1684 10.8316 27.1179 10.8135L27.0473 10.786L26.7885 10.7037C26.6198 10.6487 26.4355 10.6095 26.2551 10.5586C25.8983 10.4605 25.5296 10.3821 25.161 10.3076C24.4198 10.1546 23.663 10.0331 22.9022 9.93895C21.3963 9.73895 19.8277 9.68012 18.2826 9.60953C16.9052 9.5823 15.5277 9.6557 14.161 9.82914C12.4159 10.0409 10.71 10.4174 8.98846 10.6801C8.45121 10.7586 8.38062 10.3389 8.71788 9.79777C9.22313 9.05411 9.99074 8.52883 10.8669 8.32718C12.7017 7.89668 14.5699 7.62379 16.4512 7.51149C16.9218 7.48012 17.3885 7.45659 17.8591 7.45267C18.3296 7.44875 18.8002 7.45267 19.2708 7.45267C19.7414 7.45267 20.212 7.49581 20.6787 7.54287C21.1453 7.58993 21.6198 7.62914 22.0904 7.69581C23.212 7.84091 24.3571 7.97032 25.5179 8.14679C26.0983 8.22914 26.6943 8.35071 27.2708 8.4762L27.7414 8.60169L28.0865 8.69581C28.1963 8.7311 28.2983 8.78208 28.4081 8.82522C28.8039 9.07142 29.1167 9.4307 29.3061 9.85659C29.6073 10.4546 29.8693 11.0716 30.0904 11.7037C30.31 12.3076 30.5061 12.9076 30.6943 13.5076C31.0865 14.7115 31.3924 15.9233 31.6943 17.1429C32.063 18.6409 32.3649 20.1546 32.6002 21.6958C32.8031 22.891 32.882 24.104 32.8355 25.3154C32.8149 25.6691 32.7476 26.0185 32.6355 26.3546C32.5965 26.4582 32.5506 26.5591 32.4983 26.6566C32.4708 26.7076 32.4316 26.7625 32.3963 26.8174L32.3689 26.8566V26.884L32.3767 26.935C32.3589 27.0181 32.334 27.0994 32.3022 27.1782C32.2789 27.2213 32.2513 27.262 32.2198 27.2997L32.1022 27.3938C31.9377 27.5062 31.7581 27.5946 31.5689 27.6566C31.3899 27.722 31.2064 27.7745 31.0198 27.8135L30.7571 27.8801L30.5375 27.9233L30.1022 28.0095C28.3179 28.3193 26.6002 28.6527 24.8551 28.9193C24.463 28.9821 24.0943 29.0291 23.7061 29.0644C22.2591 29.1703 21.7806 29.0644 21.4238 28.6723C21.3367 28.5914 21.2579 28.5021 21.1885 28.4056C21.0159 28.0997 21.5806 27.7468 22.6002 27.4448L23.7492 27.1115C24.1414 26.9978 24.5336 26.8919 24.9257 26.8135L27.2787 26.2958C28.063 26.1311 28.8473 25.9586 29.6316 25.786C29.8198 25.7389 30.0002 25.6919 30.1885 25.6566H30.2551H30.2826H30.3414H30.4002H30.4277C30.4277 25.6566 30.4512 25.5978 30.4669 25.5664V25.535C31.8198 26.5546 30.8591 25.8135 31.1414 26.0409L31.0747 25.9899C31.0312 25.96 30.9853 25.9338 30.9375 25.9115C30.8747 25.8723 30.8159 25.8409 30.7532 25.8095L30.4355 25.6801H30.3924C30.3924 25.6801 30.3924 25.6448 30.3924 25.6095C30.4088 25.5214 30.4193 25.4324 30.4238 25.3429C30.4376 25.0986 30.4376 24.8538 30.4238 24.6095C30.4002 24.0762 30.3375 23.5037 30.2551 22.9272C30.0943 21.7742 29.863 20.5742 29.5845 19.4213L29.7022 19.2958Z"
        fill="#231F20" />
    <path
        d="M31.7375 18.6174C31.4237 16.9939 31.063 15.3704 30.6394 13.7743C30.4237 12.99 30.1963 12.1861 29.9375 11.4213C29.8081 11.0292 29.6669 10.6723 29.5218 10.3468L29.459 10.2057L29.4277 10.1468C29.4115 10.1045 29.371 10.0765 29.3257 10.0763C29.3257 10.0763 29.3022 10.0763 29.2943 10.0763L29.2394 10.0723L28.9492 10.0096C28.7571 9.96253 28.5571 9.94292 28.3414 9.90762C27.9362 9.83965 27.5244 9.78475 27.1061 9.74292C25.6159 9.57821 24.0904 9.55468 22.5728 9.51939C19.8908 9.44464 17.2068 9.54289 14.5375 9.81351C13.8708 9.88802 13.2041 9.95468 12.5492 10.0684C12.2198 10.1233 11.8904 10.1664 11.5649 10.2292L10.5884 10.4292C10.263 10.488 9.94923 10.5782 9.63158 10.6645C9.31394 10.7508 8.98844 10.8174 8.68648 10.9351L7.76099 11.2488C7.54531 11.3351 7.40413 11.4096 7.2159 11.4959C7.17709 11.5094 7.14018 11.5278 7.10609 11.5508C7.09818 11.5856 7.09818 11.6218 7.10609 11.6566C7.11139 11.7277 7.12055 11.7984 7.13354 11.8684L7.17276 12.1076L7.26295 12.5429C7.38452 13.1233 7.5257 13.7194 7.65511 14.2959L8.54531 17.8017C9.32962 20.7939 10.1492 23.7978 10.463 26.9155C10.5453 27.8959 10.1453 27.8017 9.64335 27.0645C8.90151 25.8923 8.35825 24.6058 8.0355 23.2566C7.27864 20.2174 6.41982 17.2096 5.64727 14.1272L5.36884 12.9508L5.22374 12.2645C5.13668 11.9011 5.09453 11.5284 5.09825 11.1547C5.10736 10.9876 5.14448 10.8232 5.20805 10.6684C5.22985 10.5934 5.26727 10.5239 5.31786 10.4645L5.5257 10.3351L6.35315 9.81351C6.76909 9.52961 7.22693 9.3126 7.71001 9.17037C7.91001 9.09586 8.10217 9.02527 8.31393 8.96253L8.92178 8.80174C9.31393 8.69978 9.72962 8.58213 10.1335 8.51547C10.5375 8.4488 10.9414 8.35468 11.3453 8.28409L12.5728 8.11155C16.4846 7.59008 20.4315 7.37896 24.3767 7.48017C24.8394 7.48017 25.2983 7.51939 25.761 7.55468C26.2237 7.58998 26.6865 7.61351 27.1532 7.66841C27.6198 7.72331 28.0786 7.76253 28.5492 7.83704C28.7806 7.87233 29.012 7.89586 29.2512 7.94292L30.1179 8.11155C30.2277 8.15468 30.3414 8.18998 30.4551 8.22919C30.5638 8.282 30.6632 8.3522 30.7492 8.43704C30.9272 8.60732 31.0792 8.80288 31.2002 9.01743C31.259 9.11939 31.3257 9.24488 31.3649 9.32723L31.4747 9.56253C31.5453 9.71547 31.6081 9.86841 31.6708 10.0213C31.91 10.6253 32.11 11.2253 32.2983 11.8253C32.6669 13.0213 32.9845 14.2213 33.2786 15.4292C33.9154 18.017 34.383 20.6434 34.6786 23.2919C34.7992 24.3213 34.8346 25.3588 34.7845 26.3939C34.7845 26.5312 34.761 26.6645 34.7453 26.8057C34.7296 26.9468 34.6904 27.1468 34.6551 27.3155C34.5857 27.6618 34.4382 27.9877 34.2237 28.2684C33.9572 28.4943 33.6268 28.6314 33.2786 28.6606C33.1924 28.6606 33.1022 28.6919 33.012 28.6998L32.7688 28.7272L32.3767 28.7625C30.3571 28.9037 28.3924 28.99 26.4355 29.1821C23.4425 29.4612 20.4788 29.9952 17.5767 30.7782C16.9414 30.9547 16.3257 31.1272 15.6982 31.3194C14.5218 31.6606 13.7649 31.9115 13.212 32.0488C12.8132 32.1696 12.3927 32.2004 11.9806 32.139C11.8336 32.1228 11.6881 32.0953 11.5453 32.0566C11.3728 31.9743 11.4865 31.7704 11.8551 31.4606C12.4225 31.0177 13.0414 30.645 13.6982 30.3508L14.659 29.9155L15.6394 29.5233C16.3006 29.2593 16.9746 29.029 17.659 28.8331C19.0277 28.441 20.4316 28.0998 21.8473 27.8253C23.263 27.5508 24.7061 27.3429 26.161 27.1664C27.6159 26.99 29.0551 26.8959 30.4747 26.7743L32.0434 26.6566L32.4159 26.6214H32.5767V26.5351C32.5767 26.4331 32.5845 26.3272 32.6002 26.2174C32.6274 25.7407 32.6274 25.2628 32.6002 24.7861C32.4283 22.7223 32.1204 20.6721 31.6786 18.6488L31.7375 18.6174Z"
        fill="#231F20" />
</svg>