<svg width="32" height="32" viewBox="0 0 32 32" fill="none" xmlns="http://www.w3.org/2000/svg">
    <path
        d="M18.075 17.2434C16.9582 18.8779 15.9323 20.6065 14.9378 22.3634C14.76 22.6834 14.5906 23.0097 14.4296 23.3422L14.1786 23.8379L13.8868 24.3932C13.7049 24.7289 13.5072 25.074 13.3158 25.3971C13.2186 25.5665 13.115 25.7108 13.0021 25.8646C12.9073 25.9998 12.8024 26.1278 12.6884 26.2473C12.5159 26.4416 12.3013 26.594 12.0609 26.6928C11.9422 26.7297 11.8182 26.7466 11.6939 26.743H11.6782C11.6782 26.7587 11.6782 26.7085 11.6782 26.7775H11.6468H11.5998L11.5307 26.721C11.48 26.6991 11.4308 26.6739 11.3833 26.6457C11.1895 26.4861 11.0042 26.3164 10.828 26.1375C10.737 26.0089 10.646 25.8865 10.5613 25.7485L10.3103 25.3093L9.83662 24.3932L9.52289 23.7657C9.17152 22.9908 8.82015 22.2222 8.45936 21.463C7.97309 20.4246 7.38956 19.43 6.83113 18.4512C6.47034 17.8238 6.06564 17.2277 5.68603 16.6316C5.50093 16.3179 5.3127 16.0293 5.12132 15.7469C4.94746 15.4691 4.75013 15.2067 4.53152 14.9626C4.482 14.9134 4.43974 14.8574 4.40603 14.7963C4.38752 14.75 4.38752 14.6983 4.40603 14.652C4.43427 14.5673 4.57544 14.4732 4.83583 14.4669C5.18108 14.4699 5.52231 14.5413 5.83976 14.6771C6.24262 14.8481 6.60737 15.0977 6.9127 15.4112C7.05701 15.5587 7.19191 15.703 7.32368 15.8567L7.68446 16.3242C7.91662 16.6379 8.14564 16.9516 8.36211 17.2653C8.57858 17.5791 8.79191 17.9085 8.98956 18.2348C9.18721 18.561 9.36603 18.903 9.54799 19.2387C9.90877 19.9132 10.2476 20.5908 10.5739 21.2779C10.737 21.6199 10.8876 21.965 11.0507 22.31L11.2798 22.8277L11.3864 23.0912L11.4398 23.223C11.4552 23.255 11.4668 23.2887 11.4743 23.3234C11.5103 23.5319 11.5825 23.7326 11.6876 23.9163C11.7004 23.9385 11.7151 23.9594 11.7315 23.9791C11.7386 23.9883 11.7497 23.9937 11.7613 23.9937C11.773 23.9937 11.784 23.9883 11.7911 23.9791C11.8255 23.9483 11.856 23.9135 11.8821 23.8755C11.9323 23.7971 11.9794 23.7124 12.0233 23.6277L12.5221 22.6614C13.4633 20.8512 14.3856 19.0191 15.4147 17.2371C16.0421 16.1359 16.7103 15.0567 17.4131 13.9963C18.4803 12.3908 19.6443 10.8518 20.8986 9.3877C21.8774 8.24887 22.8343 7.08181 24.0641 6.09985C24.3304 5.87134 24.6124 5.66168 24.908 5.4724C25.145 5.32718 25.3949 5.2043 25.6547 5.10534C25.8426 5.0425 26.0402 5.01382 26.2382 5.02064C26.5435 5.02884 26.8305 5.16833 27.0256 5.40338C27.1288 5.49943 27.2233 5.60441 27.308 5.71711C27.5401 6.09985 27.2076 6.59868 26.6272 7.13828C26.1754 7.50848 25.7394 7.8975 25.2907 8.29279C24.8421 8.68809 24.4092 9.10848 23.9794 9.5477C23.0905 10.4576 22.2527 11.4159 21.4696 12.4183C20.2659 13.9754 19.1443 15.5943 18.1096 17.2685L18.075 17.2434Z"
        fill="#E33F45" />
</svg>