<svg width="64" height="65" viewBox="0 0 64 65" fill="none" xmlns="http://www.w3.org/2000/svg">
    <path
        d="M12.4083 33.7157C12.7136 35.2049 13.0064 36.7003 13.2867 38.202C13.3934 38.7479 13.5251 39.2875 13.6067 39.8396C13.8828 41.791 14.0836 43.7549 14.1902 45.7314C14.2655 46.6036 14.2592 47.4883 14.2843 48.3541C14.2843 48.9126 14.2843 49.4836 14.2279 50.042C14.1795 50.606 14.0808 51.1646 13.933 51.711C13.8451 52.0498 13.6443 51.962 13.4498 51.642C13.1914 51.1948 13.049 50.6901 13.0357 50.1738L12.9291 48.5487C12.86 48.0028 12.7973 47.4632 12.7471 46.9236C12.6969 46.3839 12.6404 45.8318 12.6028 45.2859C12.5651 44.74 12.5087 44.1816 12.4647 43.6294C12.3023 42.2712 12.0486 40.9254 11.7055 39.6012C11.3918 38.1267 11.0781 36.6396 10.7643 35.1588C10.5573 34.249 10.3565 33.333 10.1369 32.4232C9.79807 31.049 9.50945 29.6498 9.10788 28.2883C8.82553 27.2279 8.48043 26.2051 8.1667 25.151C8.10396 24.9188 8.02239 24.693 7.97847 24.4545C7.93455 24.2161 7.92827 24.0404 7.922 23.8773C7.92539 23.7387 7.94863 23.6014 7.99102 23.4694C8.04997 23.2681 8.17621 23.0932 8.34866 22.9737C8.41935 22.9133 8.4949 22.8587 8.57455 22.8106C8.81925 22.6851 9.1518 22.9988 9.4969 23.5824C9.90474 24.4671 10.2122 25.3957 10.551 26.3432C10.7016 26.82 10.8585 27.2969 11.0153 27.7737L11.3981 29.2483C11.7745 30.7228 12.1134 32.2098 12.4585 33.7032L12.4083 33.7157Z"
        fill="black" />
    <path
        d="M20.0689 18.5621C16.4505 19.7518 12.9356 21.2355 9.55907 22.9981L9.12613 23.2428C9.06955 23.2726 9.01505 23.3061 8.96299 23.3432C8.92534 23.3872 8.83123 23.4123 8.85632 23.475L8.92534 23.6507C8.97554 23.7699 8.92534 23.6883 9.09476 24.184C9.83515 26.6938 10.3873 29.1409 10.9206 31.6256C11.454 34.1103 11.9246 36.5887 12.3575 39.0797C12.734 41.2946 13.1167 43.5158 13.4932 45.7119C13.9449 48.5354 14.4344 51.4028 14.2273 54.3268C14.1646 55.2428 13.5999 55.0985 13.0477 54.3707C12.2827 53.3031 11.7837 52.0684 11.592 50.7691C10.7512 45.1221 9.4524 39.544 8.50495 33.8279C8.1975 32.1903 7.80848 30.5589 7.35672 28.9338C7.11829 28.1307 6.88613 27.3087 6.6226 26.5181C6.49711 26.1228 6.37789 25.715 6.23358 25.3323L6.01397 24.7048C5.90103 24.3534 5.75044 24.0272 5.63123 23.6946L5.53711 22.9291L5.47437 22.4083V22.4083L5.59986 22.446V22.3895V22.3268L5.63123 22.2076C5.64668 22.1246 5.67869 22.0457 5.72535 21.9754C5.96136 21.6773 6.24554 21.4207 6.56613 21.2162C6.90495 20.9966 7.25005 20.777 7.59515 20.5887L8.27907 20.1495C9.16378 19.6538 10.061 19.1958 10.9646 18.7566C12.7653 17.8781 14.6038 17.0813 16.461 16.3409C18.7449 15.4374 21.0728 14.6342 23.4257 13.9189C26.9899 12.8554 30.6147 12.0068 34.2806 11.3777C35.6987 11.1268 37.1042 10.8632 38.5159 10.6311C39.9278 10.3851 41.3522 10.2175 42.7826 10.1291C43.41 10.0915 44.0375 10.035 44.6649 10.035C45.1672 10.028 45.669 10.0658 46.1645 10.1479C46.5077 10.2025 46.8442 10.2929 47.1685 10.4177C47.6323 10.5931 48.0056 10.9483 48.2038 11.4028C48.317 11.5919 48.4115 11.7916 48.4861 11.9989C48.643 12.6577 47.6704 13.1158 46.0265 13.373C41.1763 14.0507 36.1818 14.515 31.1559 15.5691C27.4115 16.3398 23.724 17.3649 20.1191 18.6374L20.0689 18.5621Z"
        fill="black" />
    <path
        d="M41.9736 47.2053C39.7901 47.5253 37.5815 47.9331 35.4356 48.4602C34.645 48.6547 33.8795 48.9308 33.0952 49.1378C31.7023 49.4767 30.3093 49.8594 28.9227 50.2484C27.536 50.6375 26.1368 51.0202 24.7689 51.5033C23.5454 51.8986 22.3532 52.388 21.1862 52.89C19.6805 53.5567 18.1313 54.1207 16.5493 54.5778C16.0474 54.7159 16.0034 54.4586 16.2544 53.988C16.6346 53.2647 17.1729 52.6364 17.8293 52.1496L18.9023 51.4343L19.4356 51.0767L20.0066 50.788C20.7595 50.399 21.5313 50.0414 22.303 49.69C23.8597 48.9852 25.4611 48.3836 27.0968 47.8892C29.0795 47.3559 31.0434 46.5088 33.0513 45.9002C35.2599 45.2414 37.5062 44.6829 39.765 44.1998C41.158 43.8986 42.5635 43.6539 43.9689 43.4155C46.1023 43.0641 48.2607 42.8445 50.4254 42.6877L52.9352 42.4555C53.3619 42.4116 53.7948 42.4053 54.2278 42.3739C54.6607 42.3426 55.0937 42.3739 55.5391 42.4618C55.9339 42.4931 56.3259 42.5518 56.7125 42.6375C57.2712 42.7332 57.7912 42.9856 58.2121 43.3653C58.4719 43.66 58.5788 44.0594 58.5007 44.4445C58.4872 44.6419 58.4536 44.8375 58.4003 45.028C58.2901 45.317 58.0619 45.5453 57.7729 45.6555C57.4339 45.8011 57.0688 45.8758 56.6999 45.8751C56.0725 45.8751 55.445 45.9378 54.7674 46.0006C54.0994 46.0887 53.4269 46.1389 52.7533 46.1512C51.3854 46.2202 49.9611 46.3206 48.518 46.4712C46.3721 46.6531 44.176 46.9104 41.9925 47.2931L41.9736 47.2053Z"
        fill="black" />
    <path
        d="M44.0758 30.1148C42.4098 32.018 40.8453 34.0077 39.3887 36.0755C38.8554 36.8348 38.4225 37.6504 37.9268 38.4159L37.7511 38.692L37.5252 39.0497C37.3244 39.3822 37.1487 39.7399 36.948 40.0536C36.4784 40.2937 36.0237 40.5619 35.5864 40.8567C35.547 40.8875 35.505 40.9148 35.4609 40.9383H35.2915H34.9464C34.708 40.9383 34.3817 40.9383 34.1056 40.9383L33.8421 40.8442C33.7541 40.7783 33.6703 40.7071 33.5911 40.6308L33.1017 40.2042L32.6185 39.7775C32.4862 39.6315 32.3437 39.4952 32.1919 39.3697L31.0876 38.4097L28.904 36.3391C27.8311 35.3163 26.7142 34.3312 25.6225 33.3461C24.926 32.7187 24.2044 32.0912 23.5142 31.4638C22.824 30.8363 22.1652 30.19 21.4938 29.4999C21.086 29.0857 21.2617 28.9665 21.8138 29.0606C22.6859 29.2297 23.5209 29.5527 24.2797 30.0144C25.9111 31.081 27.486 32.1979 29.0232 33.3587C30.5605 34.5195 32.0225 35.7681 33.4593 37.0104L33.8295 37.3179C33.9111 37.4057 33.9048 37.412 33.9487 37.4559L34.0554 37.5689L34.1119 37.6253C34.1119 37.6253 34.1558 37.7257 34.1746 37.7697C34.2395 37.7806 34.3027 37.7996 34.3629 37.8261L34.457 37.8952H34.5072C34.5072 37.8952 34.5072 37.8952 34.5072 37.845C34.5574 37.7257 34.6264 37.6065 34.6829 37.481C34.6829 37.481 35.2538 36.4457 35.668 35.812C37.1026 33.5717 38.6568 31.4101 40.3236 29.3367C41.3401 28.0818 42.4068 26.8269 43.4986 25.6034C45.1724 23.7685 46.9466 22.0278 48.8131 20.3893C49.5409 19.7618 50.2437 19.103 50.9778 18.4755C51.7205 17.8297 52.5231 17.2562 53.3746 16.7626C53.7393 16.5329 54.1164 16.3234 54.504 16.1351C55.0261 15.8471 55.6086 15.6859 56.2044 15.6646C56.5879 15.6929 56.9424 15.8793 57.1833 16.1791C57.3109 16.3078 57.4284 16.4463 57.5346 16.5932C57.8233 17.0889 57.3966 17.7477 56.5558 18.3626C55.3009 19.2536 54.1527 20.3516 52.904 21.343C51.6554 22.3344 50.4695 23.4826 49.2837 24.6622C48.4178 25.5469 47.5331 26.4316 46.6735 27.3477C45.8138 28.2638 44.9731 29.23 44.1637 30.19L44.0758 30.1148Z"
        fill="black" />
</svg>