<svg width="53" height="53" viewBox="0 0 53 53" fill="none" xmlns="http://www.w3.org/2000/svg">
    <path
        d="M10.884 44.0407C10.884 44.0407 7.99861 41.9945 10.265 39.5406C10.8635 38.8209 11.754 38.4084 12.6901 38.4174C13.6262 38.4264 14.5086 38.8558 15.0932 39.587C15.5959 40.2671 16.1571 41.8364 15.128 42.8782C13.9585 43.8812 12.4013 44.3078 10.884 44.0407Z"
        fill="black" />
    <path
        d="M11.0186 31.0709C9.52667 30.1372 8.30156 26.5252 13.2338 25.4704C13.2338 25.4704 14.6719 25.1495 15.1974 27.5229C15.723 29.8963 14.5577 30.0532 13.3957 30.7308C12.2337 31.4084 11.5024 31.3928 11.0186 31.0709Z"
        fill="black" />
    <path
        d="M7.98979 18.1772C7.5407 17.8928 7.21424 17.4507 7.07463 16.9378C6.87088 15.2858 7.87366 13.7233 9.46037 13.2204C12.5114 12.2582 14.0327 13.7531 14.5337 15.086C15.0346 16.4189 14.512 17.7575 12.7529 18.4664C11.2104 19.0801 9.54009 19.3113 7.98979 18.1772Z"
        fill="black" />
    <path
        d="M36.2023 15.4353C34.9309 15.3941 33.6472 15.3876 32.3514 15.4155C31.8857 15.44 31.4246 15.5539 30.9507 15.5369C29.2842 15.4985 27.5929 15.4434 25.9122 15.4776C25.1674 15.5056 24.4254 15.5845 23.6913 15.7137C22.7408 15.9492 21.7465 15.9437 20.7986 15.6977C20.4881 15.6002 20.5062 15.0304 20.7307 14.402C20.9552 13.7735 21.3186 13.0539 21.8476 12.8646L22.5302 12.6372C22.7563 12.5782 22.986 12.5342 23.2178 12.5054C23.6873 12.4388 24.1575 12.3843 24.6342 12.3413C25.6012 12.2533 26.5737 12.2424 27.5424 12.3087C28.7444 12.3953 29.9239 12.0521 31.1159 11.9477C32.4295 11.8789 33.7551 11.8094 35.0838 11.7997L37.5372 11.7729C38.7817 11.7556 40.0299 11.8099 41.2797 11.7803C42.2698 11.6596 43.2659 11.5954 44.2633 11.588C44.4957 11.5856 44.728 11.5954 44.9594 11.6174C45.3041 11.6434 45.6218 11.8138 45.8342 12.0865C45.9884 12.3951 46.0199 12.7508 45.9223 13.0817C45.8911 13.287 45.8599 13.4922 45.8102 13.6864C45.6609 14.2649 45.2384 14.7341 44.6786 14.9431C43.9408 15.1532 43.1885 15.3087 42.4278 15.4084C42.0576 15.4278 41.6396 15.4497 41.2336 15.471C40.8276 15.4922 40.4313 15.4711 40.0369 15.4858L38.169 15.4879C37.5697 15.4774 36.9056 15.4882 36.2721 15.5094L36.2023 15.4353Z"
        fill="black" />
    <path
        d="M35.5947 27.7173C34.3533 27.6806 33.0894 27.669 31.8273 27.6932C31.3735 27.717 30.9244 27.8303 30.4565 27.8129C28.8199 27.773 27.1643 27.716 25.5195 27.7484C24.7888 27.7764 24.0608 27.8526 23.3401 27.9763C22.4078 28.2139 21.4301 28.2074 20.5011 27.9575C20.1966 27.8597 20.2146 27.2899 20.4332 26.6618C20.6517 26.0336 21.0092 25.3144 21.5083 25.1265L22.1566 24.9309C22.3812 24.8761 22.6091 24.8362 22.8389 24.8113C23.2962 24.7395 23.7547 24.6915 24.2255 24.6488C25.1724 24.559 26.1253 24.5491 27.0739 24.6193C28.2341 24.7082 29.3897 24.3662 30.5575 24.2571C31.8473 24.1895 33.1489 24.1213 34.4478 24.1131L36.8415 24.0895C38.0382 24.0746 39.2864 24.129 40.5186 24.1063C41.496 23.9978 42.4789 23.9463 43.4623 23.952C43.6907 23.9501 43.9191 23.9602 44.1465 23.982C45.0125 24.1702 45.2406 24.5234 45.0792 25.442C45.042 25.6475 45.0169 25.8524 44.9612 26.0469C44.8128 26.626 44.39 27.0955 43.8296 27.3037C43.1073 27.5116 42.3712 27.6682 41.6268 27.7724C41.2626 27.7915 40.8625 27.8124 40.4744 27.8328C40.0863 27.8531 39.69 27.832 39.2777 27.8476L37.4814 27.8459C36.8821 27.8354 36.248 27.8447 35.6204 27.8656L35.5947 27.7173Z"
        fill="black" />
    <path
        d="M37.355 41.0847C35.9823 41.0548 34.5867 41.0442 33.1634 41.0768C32.6559 41.1034 32.159 41.2193 31.6493 41.2041C29.8511 41.1666 28.0526 41.1231 26.2104 41.1598C25.4122 41.1939 24.6167 41.2756 23.8283 41.4044L23.069 41.54C22.8063 41.5538 22.5495 41.5672 22.2868 41.581C21.7531 41.6018 21.2193 41.543 20.703 41.4065C20.3746 41.31 20.3926 40.7402 20.6351 40.1108C20.8152 39.4568 21.2466 38.9004 21.8352 38.5631L22.5716 38.3329C22.834 38.2747 23.0998 38.2327 23.3673 38.2073C23.8783 38.1327 24.3846 38.0822 24.9032 38.037C25.9472 37.9399 26.9972 37.9229 28.0439 37.9862C29.3235 38.0688 30.5985 37.7206 31.8861 37.6112C33.3072 37.5367 34.7342 37.4619 36.1647 37.4528L38.8089 37.4101C40.1489 37.3877 41.4927 37.4371 42.8374 37.3905C43.8823 37.3358 44.9304 37.1132 46.0473 37.1744C46.2921 37.1616 46.5429 37.1484 46.7911 37.2013L47.1057 37.2626C47.2005 37.2944 47.2927 37.3336 47.3813 37.3799C47.5237 37.447 47.6481 37.5473 47.7439 37.6723C47.9205 37.9762 47.9675 38.3383 47.8744 38.6773C47.8514 38.8807 47.816 39.0825 47.7683 39.2816C47.6151 39.8768 47.1678 40.3521 46.583 40.5412C46.4098 40.5503 46.193 40.6395 45.9918 40.6859C45.7907 40.7324 45.5896 40.7789 45.3997 40.8128C44.9864 40.9154 44.5657 40.9855 44.1414 41.0224C43.7354 41.0437 43.2756 41.0678 42.8457 41.0903L41.4824 41.1258L39.4533 41.1364C38.7707 41.1362 38.0768 41.1486 37.3836 41.173L37.355 41.0847Z"
        fill="black" />
    <path
        d="M10.9393 20.19C9.16849 20.2686 7.44266 19.6191 6.16296 18.3926C5.65366 17.9409 5.24519 17.387 4.96411 16.767C4.56623 15.6972 4.54697 14.5233 4.90954 13.4409C5.52869 11.581 6.99091 10.1234 8.85279 9.5101C9.44489 9.34141 10.0675 9.30879 10.6739 9.41465C11.2543 9.51963 11.7835 9.81406 12.1787 10.2519C12.4203 10.5206 11.9674 11.0173 11.4293 11.4886C11.0442 11.8714 10.6107 12.2022 10.1396 12.4723C9.96818 12.4747 9.799 12.5121 9.64247 12.5821C9.46976 12.6304 9.30085 12.6912 9.1371 12.7643C8.66461 13.0156 8.25202 13.3661 7.9276 13.7917C7.71707 14.0764 7.62029 14.4295 7.65618 14.7818C7.68649 15.0881 7.79024 15.3825 7.95861 15.6401C8.15375 15.9643 8.42733 16.2341 8.75414 16.4247C9.1251 16.6549 9.54124 16.8026 9.97431 16.8577C10.5524 16.942 11.1423 16.8781 11.6889 16.6721C12.5309 16.4323 13.2021 15.7955 13.4856 14.9673C13.6574 14.3595 13.2797 14.0081 12.8621 13.6947C12.7621 13.6304 12.6681 13.5571 12.5812 13.4759C12.4288 13.339 12.3441 13.1421 12.3494 12.9372C12.4037 12.6221 12.4983 12.3153 12.6309 12.0244C12.6997 11.8531 12.7563 11.6765 12.8261 11.5232C12.9383 11.2627 13.1394 11.0506 13.3935 10.9246C13.6986 10.7457 14.0673 10.7111 14.4004 10.83C14.6731 10.9298 14.9362 11.0543 15.1863 11.2019C15.3104 11.2852 15.4405 11.3682 15.5712 11.4631C15.6934 11.5659 15.8074 11.678 15.9121 11.7985C16.6683 12.6606 17.043 13.7923 16.9507 14.9354C16.9253 15.3153 16.8483 15.69 16.7216 16.0491C16.5149 16.6963 16.1938 17.3013 15.7734 17.8351C14.5729 19.2765 12.8279 20.1551 10.955 20.261L10.9393 20.19Z"
        fill="black" />
    <path
        d="M12.51 32.795C10.8841 33.0146 9.23524 32.6112 7.89439 31.6657C7.64647 31.5051 7.41584 31.3316 7.17893 31.1524C6.93904 30.959 6.72593 30.7346 6.54522 30.4851C5.91522 29.5933 5.60928 28.5128 5.67824 27.4231C5.71306 26.9077 5.8386 26.4025 6.04908 25.9307C6.25889 25.4872 6.5388 25.0803 6.87805 24.7257C7.42863 24.1391 8.08664 23.6636 8.8164 23.3249C9.66722 22.8352 10.6741 22.6924 11.6275 22.9261C11.9261 23.0242 11.82 23.5148 11.605 23.9811C11.3899 24.4474 11.1211 25.0303 10.8178 25.1839C10.3134 25.4073 9.85815 25.7282 9.47823 26.1282C9.33945 26.2821 9.21586 26.449 9.10918 26.6266C9.01015 26.7934 8.91081 26.9543 8.78286 27.1406C8.64517 27.3736 8.63539 27.6606 8.75692 27.9024C8.88301 28.164 9.05568 28.4004 9.26649 28.6001C9.78815 29.1798 10.5157 29.5328 11.2939 29.5836C11.8123 29.6209 12.3319 29.53 12.8068 29.3187C13.1562 29.1659 13.4722 28.9459 13.7368 28.6712C13.9533 28.4402 14.0592 28.1268 14.0271 27.8118C13.9875 27.5323 13.8677 27.2703 13.6822 27.0575C13.4837 26.8178 13.2595 26.6006 13.0136 26.41C12.913 26.3194 12.7723 26.261 12.6777 26.1701C12.3063 25.8243 12.3636 25.5459 12.7738 24.8059C12.8729 24.6391 12.9534 24.4612 13.0527 24.3004C13.3331 23.7356 14.0038 23.4856 14.5855 23.7291C15.0327 23.9297 15.4407 24.2083 15.7902 24.5521C16.17 24.9188 16.4876 25.3451 16.7304 25.814C17.0276 26.3831 17.2012 27.0086 17.2398 27.6494C17.292 28.3966 17.1496 29.1447 16.8267 29.8205C16.7097 30.0684 16.5719 30.306 16.4148 30.5307C16.2583 30.7424 16.0882 30.925 15.9185 31.1135C15.603 31.4254 15.2565 31.7044 14.8844 31.9461C14.1565 32.4029 13.3476 32.7156 12.5018 32.8672L12.51 32.795Z"
        fill="black" />
    <path
        d="M14.9916 44.3882C14.2251 44.8092 13.3865 45.0827 12.5191 45.1943C11.6681 45.3192 10.8019 45.2957 9.95889 45.125C9.28379 45.0132 8.63891 44.7637 8.06439 44.392C7.53476 44.0131 7.09913 43.5177 6.79102 42.9439C6.49317 42.3989 6.32037 41.7943 6.28515 41.1742C6.2461 40.6122 6.29737 40.0476 6.43699 39.5018C6.56806 38.9502 6.81204 38.4319 7.15353 37.9793C7.70993 37.2098 8.43155 36.5746 9.26544 36.1203C9.75644 35.8456 10.2807 35.635 10.8253 35.4938C11.3707 35.4116 11.9276 35.4541 12.4543 35.6179C12.7833 35.7264 12.7399 36.1538 12.5107 36.6927C12.3136 37.2595 12.0192 37.7876 11.6404 38.2531C11.3148 38.4378 10.9918 38.5566 10.7438 38.7372C10.5208 38.8847 10.313 39.054 10.1236 39.2427C9.97458 39.3968 9.84485 39.5685 9.73728 39.7539C9.70364 39.7976 9.68855 39.8523 9.65522 39.9019C9.60761 39.9507 9.56622 40.0051 9.532 40.064C9.44755 40.193 9.37455 40.329 9.31381 40.4706C9.17801 40.7651 9.17828 41.1044 9.31455 41.3986C9.47241 41.6676 9.70151 41.8876 9.97655 42.0345C10.3764 42.2645 10.824 42.3988 11.2844 42.427C11.7977 42.4621 12.3129 42.3965 12.8011 42.2338C13.4005 42.0493 13.9346 41.6972 14.3405 41.2191C14.6353 40.8785 14.8421 40.4709 14.9429 40.0319C15.0217 39.5594 14.9459 39.0741 14.7267 38.6482C14.3835 38.0266 13.7581 37.6122 13.0519 37.5385C12.9266 37.5451 12.8131 37.551 12.7176 37.556C12.562 37.6119 12.3884 37.5543 12.2971 37.4164C12.1297 37.2354 11.9719 37.0459 11.8243 36.8484L11.5494 36.5156C11.4075 36.3284 11.3719 36.0814 11.4553 35.8619C11.508 35.7009 11.5826 35.5479 11.6769 35.4072C11.8117 35.2417 11.9862 35.113 12.1842 35.0334C12.8418 34.8365 13.5436 34.8436 14.197 35.0536C14.8187 35.2513 15.3872 35.588 15.8592 36.0382C16.3179 36.4663 16.692 36.9768 16.9619 37.5431C17.0964 37.8235 17.2381 38.1274 17.3605 38.4084C17.4775 38.7237 17.5608 39.0505 17.6092 39.3833C17.6529 39.6416 17.6667 39.904 17.6502 40.1655C17.6546 40.4406 17.6268 40.7154 17.5674 40.9841C17.4722 41.4913 17.2956 41.9797 17.0445 42.4305C16.5479 43.2612 15.8572 43.959 15.0315 44.4639L14.9916 44.3882Z"
        fill="black" />
</svg>