<svg width="24" height="25" viewBox="0 0 24 25" fill="none" xmlns="http://www.w3.org/2000/svg">
<path d="M10.8098 3.87403C11.2522 4.24109 11.5369 4.43638 11.3722 4.7352C11.2781 4.90226 11.3722 5.10932 11.3722 5.2952C11.3945 5.9599 11.4535 6.62286 11.5487 7.28109C11.591 7.61756 11.6522 7.95403 11.7016 8.2905C11.751 8.62697 11.8004 8.96579 11.8569 9.30461C11.9581 9.88579 12.1134 10.4576 12.2522 11.0317C12.4875 12.0011 12.7628 12.9634 13.0334 13.9234C13.1698 14.4176 13.2545 14.9234 13.3887 15.4176C13.6687 16.4011 14.0098 17.3658 14.3416 18.3234C14.431 18.5587 14.4992 18.8176 14.5769 19.0623C14.6545 19.307 14.7063 19.5658 14.7839 19.8128C14.8428 19.994 14.951 20.1517 15.0192 20.3258C15.0616 20.3964 15.0751 20.4807 15.0569 20.5611C14.9839 20.8152 14.5863 21.0905 14.1157 21.1681C13.7651 21.227 13.4898 21.2105 13.4098 21.0387C13.2098 20.6411 13.0145 20.2411 12.831 19.8387C12.6475 19.4364 12.5087 19.0199 12.3604 18.6081C12.2357 18.2764 12.0522 17.9658 11.9392 17.6293C11.7581 17.1046 11.6263 16.5634 11.4687 16.0317C11.2451 15.2505 11.0828 14.4528 10.8804 13.6787C10.6451 12.7776 10.4098 11.8787 10.2075 10.9681C10.1439 10.6787 10.0875 10.3917 10.0334 10.0999C9.95336 9.64579 9.87571 9.18932 9.80983 8.72814C9.77454 8.49285 9.74865 8.25756 9.72983 8.03638C9.71101 7.8152 9.69218 7.56579 9.67336 7.3305C9.58097 6.32712 9.59517 5.31677 9.71571 4.31638C9.72733 4.23568 9.74866 4.15667 9.77924 4.08109C9.96042 3.7705 10.0687 3.7305 10.8098 3.87403Z" fill="white"/>
<path d="M4.23486 13.8568C4.40898 13.3297 4.60663 12.9885 4.92192 13.0968C5.1031 13.1603 5.28192 13.0427 5.4631 13.0215C6.67722 12.8662 7.87016 12.6403 9.05133 12.3885C9.55444 12.2617 10.0508 12.1094 10.5384 11.9321C10.9549 11.8027 11.3596 11.6332 11.769 11.4827C12.1784 11.3321 12.5807 11.1532 12.9854 10.9768C13.3902 10.8003 13.8419 10.6827 14.2584 10.5062C15.0937 10.1368 15.9054 9.65913 16.7902 9.32972C17.2396 9.14854 17.7313 9.04031 18.1878 8.88501C18.3549 8.81512 18.5183 8.73658 18.6772 8.64972C18.7489 8.60787 18.8363 8.60263 18.9125 8.6356C19.1643 8.7556 19.4231 9.29913 19.5078 9.85913C19.5713 10.285 19.569 10.5932 19.4207 10.6521C18.7243 10.8991 18.0372 11.205 17.3549 11.5344C17.2164 11.6051 17.082 11.6837 16.9525 11.7697C16.8197 11.8487 16.6822 11.9194 16.5407 11.9815C16.0913 12.1674 15.6207 12.318 15.1549 12.4897C14.4725 12.7415 13.776 12.9744 13.0796 13.2191C12.6819 13.358 12.2843 13.5062 11.8819 13.6356C11.4796 13.765 11.0725 13.8874 10.6655 14.0121C10.409 14.0921 10.1455 14.1415 9.88427 14.2027C9.06806 14.3913 8.24043 14.5264 7.40663 14.6074C6.54545 14.6991 5.68427 14.7627 4.81839 14.7862C4.75452 14.792 4.69012 14.7873 4.6278 14.7721C4.37369 14.7038 4.33369 14.6097 4.23486 13.8568Z" fill="white"/>
</svg>
