<svg width="700" height="280" viewBox="0 0 700 280" fill="none" xmlns="http://www.w3.org/2000/svg">
    <path
        d="M685.081 279.951L0.375926 272.319C11.835 185.022 19.0799 100.383 18.0855 12.9588L695.641 19.6684C684.845 107.852 685.981 193.413 685.081 279.951Z"
        fill="#37352F" />
    <path
        d="M684.942 280L0 272.332C11.4591 185.035 14.2055 98.5872 12.9744 11.1632L700 17.8728C689.204 106.056 685.605 193.426 684.942 280Z"
        fill="#37352F" />
    <path
        d="M272.611 0.0900099H421.886L426.625 5.7167L424.255 12.4687L426.625 25.9728L424.255 32.7248L426.625 39.4769H272.611V0.0900099Z"
        fill="#ECE5D2" fill-opacity="0.76" />
    <path
        d="M427.904 21.9441C427.383 19.6934 426.72 15.8672 426.388 13.6166C426.388 12.3337 427.857 9.83543 427.904 8.55255C427.873 7.02804 427.394 5.51305 426.483 4.05119C425.863 3.03828 425.103 2.04586 424.208 1.08032C423.971 0.742714 422.407 0 421.933 0C422.407 0.607683 423.782 2.25066 424.208 2.97088C425.123 4.43235 425.602 5.94761 425.63 7.47227C425.63 8.75515 423.876 11.2309 424.066 12.5363C424.398 14.787 425.061 18.6131 425.63 20.8638C425.867 21.9891 425.63 24.8024 425.63 25.9278C425.63 27.7058 424.019 31.2169 424.066 32.9949C424.066 33.9402 424.682 35.9208 425.109 37.3162C425.393 38.2165 425.63 38.8692 425.63 38.8692H271C271.507 39.3315 272.301 39.7086 273.275 39.9495H420.938C422.849 40.0655 424.79 39.9809 426.625 39.7019C426.625 39.7019 427.999 39.3869 427.383 38.3966C426.698 36.9794 426.364 35.5291 426.388 34.0752C426.388 32.2972 427.952 28.7862 427.904 27.0081C427.857 25.8828 428.141 23.0694 427.904 21.9441Z"
        fill="#A19F9A" />
</svg>