<svg width="48" height="48" viewBox="0 0 48 48" fill="none" xmlns="http://www.w3.org/2000/svg">
    <path
        d="M14.5958 33.9856C14.5958 33.8491 15.4946 38.2209 17.0428 35.3173C17.5134 34.442 15.9652 39.082 15.9652 39.082C15.9652 39.082 14.4405 36.6726 14.5958 33.9856Z"
        fill="white" />
    <path
        d="M35.2348 17.8206L32.8536 20.023C32.5665 20.2912 32.2983 20.5782 32.0065 20.8418L28.896 23.6135C28.4254 24.0183 27.9877 24.4512 27.536 24.8653C27.2545 25.1436 26.9593 25.4074 26.6513 25.6559C26.4913 25.7735 26.3265 25.8818 26.1807 25.99C26.0348 26.0983 25.823 26.1877 25.6489 26.2865C25.4748 26.3853 25.4136 26.2865 25.5077 26.0888C25.6568 25.7591 25.8364 25.444 26.0442 25.1477C26.5618 24.5594 27.1689 24.0465 27.7336 23.4865C28.2983 22.9265 28.8913 22.3947 29.4983 21.8677C30.2183 21.2324 30.8818 20.4794 31.5689 19.7782L33.8418 17.463C34.3124 16.9924 34.783 16.5218 35.2254 16.0512C35.9124 15.3171 36.6371 14.5924 37.2583 13.8253C37.7358 13.2245 38.1774 12.5959 38.5807 11.9429C38.6701 11.8018 38.7501 11.6559 38.8442 11.5194C39.0042 11.2747 39.1265 11.1241 39.2865 11.0488C39.4584 11.052 39.6299 11.0677 39.7995 11.0959C39.8983 11.0959 40.0018 11.0959 40.0865 11.0959C40.1713 11.0959 40.3265 11.19 40.3924 11.3877C40.425 11.5087 40.4346 11.6348 40.4207 11.7594C40.4098 11.8804 40.3729 11.9976 40.3124 12.1029C39.5837 13.3749 38.6774 14.5364 37.6207 15.5524C36.8583 16.3335 36.063 17.0865 35.2677 17.8488L35.2348 17.8206Z"
        fill="white" />
    <path
        d="M27.3315 31.3347C27.9292 31.4618 28.5127 31.6265 29.0915 31.8053C29.3033 31.8665 29.5197 31.9135 29.7315 31.9888C30.4602 32.2634 31.1666 32.5938 31.8445 32.9771C32.1456 33.1512 32.4562 33.3018 32.7574 33.4477C32.958 33.5505 33.1487 33.6718 33.3268 33.81C33.4905 33.9745 33.63 34.1615 33.7409 34.3653C33.8115 34.4924 33.6986 34.5724 33.4962 34.6241C33.259 34.6901 33.0106 34.7062 32.7668 34.6712C32.6697 34.65 32.5782 34.6083 32.4986 34.5488L32.2539 34.3888L31.7315 34.083L30.6586 33.4712C30.1956 33.2439 29.7076 33.0717 29.2044 32.9583C28.6586 32.7935 28.1033 32.6571 27.5433 32.5347C27.195 32.4688 26.8468 32.403 26.4939 32.3559L25.6939 32.2665C25.4256 32.2665 25.1574 32.2335 24.8891 32.2335C24.4758 32.2621 24.0652 32.3219 23.6609 32.4124C23.5715 32.4124 23.4821 32.4594 23.3927 32.4735C23.0586 32.4735 22.9221 32.3983 22.8515 32.0688C22.8515 31.9983 22.8044 31.9324 22.7903 31.8712C22.7499 31.6271 22.8879 31.3884 23.1197 31.3018C23.4922 31.1476 23.8888 31.06 24.2915 31.043C24.6988 31.0124 25.1078 31.0124 25.515 31.043C26.1262 31.0876 26.7343 31.1677 27.3362 31.283L27.3315 31.3347Z"
        fill="white" />
    <path
        d="M30.6692 23.1322L24.4763 27.9886C23.7234 28.5816 23.0081 29.2075 22.2504 29.7957C21.5641 30.2754 20.9328 30.8293 20.3681 31.4475C20.2216 31.6013 20.0644 31.7444 19.8975 31.8757C19.8457 31.9228 19.8363 31.9275 19.8222 31.9322C19.8059 31.9457 19.7916 31.9616 19.7798 31.9792C19.7328 32.0404 19.6763 32.1063 19.6292 32.1769C19.4269 32.4592 19.2716 32.8075 19.0739 33.118C18.686 33.8278 18.348 34.5637 18.0622 35.3204L17.9492 35.6075L17.8175 35.9745L17.4739 36.8733C17.2669 37.4522 17.0786 38.031 16.8763 38.4686C16.7376 38.7709 16.5604 39.0541 16.3492 39.311C16.2707 39.4229 16.1586 39.5069 16.0292 39.551H15.9539C15.9539 39.6122 15.9539 39.551 15.9539 39.5839H15.9163C15.8713 39.5695 15.8273 39.5522 15.7845 39.5322C15.6991 39.4899 15.6199 39.4361 15.5492 39.3722C15.4739 39.311 15.4128 39.2498 15.3469 39.1933C15.2851 39.1226 15.227 39.0488 15.1728 38.9722C15.0622 38.823 14.9631 38.6657 14.8763 38.5016C14.7702 38.3244 14.6759 38.1405 14.5939 37.951C14.5249 37.7408 14.4496 37.529 14.3681 37.3157C14.2739 37.0286 14.2175 36.6851 14.1233 36.3745L14.001 35.8569C13.9539 35.6969 13.921 35.4663 13.8975 35.3863L13.761 34.671C13.703 34.4364 13.6667 34.1969 13.6528 33.9557L13.5492 32.5816C13.5274 32.3658 13.5195 32.1489 13.5257 31.9322C13.5242 31.7477 13.5084 31.5636 13.4786 31.3816C13.4786 31.2827 13.4786 31.2357 13.4786 31.1745C13.4799 31.1055 13.5048 31.0391 13.5492 30.9863C13.7313 30.8072 14.0137 30.7797 14.2269 30.9204C14.6559 31.1515 15.0299 31.4726 15.3233 31.8616C15.6645 32.3038 15.8981 32.8194 16.0057 33.3675C16.0481 33.6122 16.1045 33.838 16.1233 34.1016V35.1886C16.1233 35.2733 16.1233 35.2498 16.1233 35.2498C16.1037 35.2965 16.1037 35.349 16.1233 35.3957C16.1516 35.4569 16.1704 35.4569 16.2316 35.3957L16.2833 35.3251C16.2833 35.3251 16.2833 35.3251 16.3069 35.2686L16.3351 35.1792L16.4481 34.8216C16.6081 34.351 16.7775 33.8804 16.9751 33.4098C17.0928 33.1228 17.2151 32.8357 17.3469 32.5486C17.4175 32.4028 17.4833 32.2569 17.5586 32.111C17.6339 31.9651 17.7281 31.8286 17.8175 31.6875C18.0115 31.3883 18.227 31.1037 18.4622 30.8357C18.548 30.7515 18.6392 30.6729 18.7351 30.6004L18.9092 30.4639C19.0257 30.3682 19.1483 30.2801 19.2763 30.2004C19.5304 30.0357 19.7986 29.8851 20.0386 29.7298L20.7116 29.0663L22.0528 27.8663L27.9539 22.6522L29.7751 21.0427C30.3869 20.5157 30.9986 19.9886 31.6057 19.4521C33.4457 17.8333 35.2904 16.2051 37.0363 14.511C37.7092 13.8474 38.3492 13.1651 38.9751 12.4733C39.601 11.7815 40.2034 11.0615 40.8151 10.3792C41.0787 10.0639 41.361 9.78155 41.6528 9.49449C42.0301 9.10166 42.4573 8.75993 42.9234 8.47802C43.0691 8.39444 43.2284 8.3371 43.394 8.3086C43.5504 8.29313 43.7081 8.29313 43.8645 8.3086C43.9916 8.3086 44.1281 8.3086 44.2175 8.3086C44.4669 8.33213 44.4481 9.15096 43.8175 10.1392C43.5916 10.5157 43.3469 10.8639 43.1022 11.2263L42.7304 11.7674C42.6034 11.9463 42.4575 12.1063 42.321 12.2757C41.7187 12.9502 41.1163 13.6059 40.5139 14.2427C39.9022 14.8733 39.2716 15.4945 38.6316 16.1251L36.7116 17.9416C34.7539 19.7204 32.7602 21.4631 30.7304 23.1698L30.6692 23.1322Z"
        fill="white" />
    <path
        d="M33.1396 16.9035C31.571 17.8446 30.0024 18.7858 28.4338 19.727C27.8644 20.0752 27.3279 20.4705 26.7585 20.814L20.7396 24.4517C19.8408 24.9835 18.9702 25.567 18.1138 26.1458C17.0146 26.8957 15.8687 27.5747 14.6832 28.1788C14.3114 28.3623 14.2596 28.207 14.4196 27.8305C14.6766 27.251 15.037 26.7232 15.4832 26.2729L16.2314 25.5811L16.6079 25.2282L17.0126 24.9176C17.5522 24.5035 18.0981 24.0988 18.6502 23.7035C19.2055 23.3082 19.7561 22.9082 20.3396 22.5505C20.9232 22.1929 21.5114 21.8164 22.1232 21.5011C23.5585 20.7011 24.9185 19.6705 26.3208 18.7576C27.8644 17.7552 29.4267 16.7764 30.9796 15.7929L33.8596 13.9811C35.3044 13.0399 36.7773 12.1646 38.1891 11.2046C39.2855 10.4611 40.3255 9.67052 41.4079 8.92228C41.6479 8.75758 41.8785 8.58346 42.1232 8.4517C43.0644 7.88228 43.5349 7.92464 43.9114 8.18817C44.0052 8.24267 44.0949 8.30401 44.1796 8.3717C44.302 8.48934 44.2926 8.65876 44.1796 8.87993C44.049 9.17229 43.86 9.43491 43.6244 9.6517C43.2055 10.0799 42.7396 10.4282 42.2832 10.8235C41.8267 11.2188 41.342 11.5811 40.8714 11.9576C39.9049 12.7132 38.8945 13.4109 37.8455 14.047C36.302 15.0352 34.7208 15.9858 33.1396 16.9646V16.9035Z"
        fill="white" />
    <path
        d="M29.9086 33.0193C29.3179 32.8108 28.7143 32.6411 28.1016 32.511C27.8757 32.4546 27.631 32.4781 27.4145 32.431C27.0145 32.3416 26.6098 32.3087 26.1957 32.2475C25.7819 32.1968 25.3655 32.1701 24.9486 32.1675C24.5803 32.1698 24.2137 32.2172 23.8569 32.3087C23.4122 32.4655 22.9448 32.5482 22.4734 32.5534C22.3181 32.5534 22.2381 32.1534 22.271 31.7534C22.3039 31.3534 22.4639 30.9393 22.7416 30.864C23.7716 30.6063 24.8445 30.5694 25.8898 30.7557C26.5157 30.864 27.1698 30.8122 27.8051 30.9016C28.5021 31.0031 29.1898 31.1604 29.8616 31.3722C30.2757 31.5087 30.6851 31.6404 31.0851 31.7957C31.6969 32.0169 32.2757 32.3181 32.8686 32.5769C33.3417 32.7545 33.8024 32.9635 34.2475 33.2028C34.3369 33.2687 34.4357 33.3251 34.5204 33.4004C34.8263 33.6969 34.8592 33.871 34.7275 34.1534C34.7045 34.2146 34.6778 34.2743 34.6475 34.3322C34.488 34.5222 34.2284 34.5951 33.9933 34.5157C33.7816 34.4687 33.551 34.4451 33.3392 34.4075C33.1383 34.3656 32.9437 34.2975 32.7604 34.2051L31.631 33.7346C31.0607 33.4878 30.4762 33.2757 29.8804 33.0993L29.9086 33.0193Z"
        fill="white" />
    <path
        d="M40.4453 18.656C40.2006 19.2066 39.9748 19.7666 39.7348 20.3266C39.4948 20.8866 39.2642 21.4419 39.0383 22.0113C38.8736 22.4207 38.7653 22.8536 38.6053 23.2677C38.0406 24.7266 37.5042 26.2042 37.0712 27.7054C36.8924 28.4019 36.7136 29.0513 36.5724 29.7242C36.4877 30.1525 36.4124 30.5854 36.3465 31.0136C36.2491 31.4266 36.1737 31.8444 36.1206 32.2654C36.1206 32.4725 36.0077 32.5525 35.7724 32.3313C35.471 31.971 35.2798 31.5315 35.2218 31.0654C35.1996 30.1215 35.2531 29.1772 35.3818 28.2419C35.5582 27.3274 35.8085 26.4288 36.13 25.5548C36.5112 24.5007 36.7277 23.3666 37.0712 22.2607C37.4524 21.0701 37.8524 19.9077 38.3324 18.7266C38.6195 18.016 38.9253 17.3148 39.2265 16.5995C39.6971 15.5266 40.2053 14.4724 40.69 13.4183C40.8877 13.0089 41.0524 12.5901 41.2312 12.1713C41.394 11.7445 41.589 11.3307 41.8148 10.9336C41.9183 10.7595 41.9983 10.576 42.1206 10.4065C42.563 9.78067 42.8547 9.67243 43.3018 9.84655C43.4067 9.87957 43.509 9.92047 43.6077 9.9689C43.9183 10.1524 43.9606 10.5618 43.7771 11.0277C43.4995 11.7289 43.3065 12.4818 42.9348 13.1736L41.9371 15.3383C41.4665 16.4301 40.9442 17.536 40.4971 18.6654L40.4453 18.656Z"
        fill="white" />
    <path
        d="M25.161 18.6201L17.8198 21.6319C16.9257 21.999 16.0645 22.4272 15.1704 22.7942L10.4645 24.7331L9.89043 24.9778L9.59867 25.1095L9.36808 25.2131L8.85514 25.4107C8.5022 25.5566 8.1069 25.7213 7.69278 25.9143C7.59867 25.9566 7.50926 25.999 7.42455 26.046C7.37953 26.0676 7.33823 26.0962 7.3022 26.1307C7.33043 26.1307 7.3822 26.1307 7.42455 26.1307L7.96573 26.1684C8.3422 26.1919 8.72808 26.2154 9.07631 26.2531C9.18926 26.2531 9.3022 26.2766 9.41043 26.2954C9.44337 26.2954 9.44808 26.2954 9.50926 26.2954L9.69749 26.3378L10.0693 26.4225C10.5715 26.5415 11.0639 26.6989 11.5422 26.8931C12.0454 27.0937 12.52 27.3595 12.954 27.6837C13.4108 28.0412 13.7594 28.5185 13.961 29.0625C14.0881 29.4013 14.0316 29.5801 13.9281 29.6131C13.8245 29.646 13.6269 29.5519 13.3445 29.4531C12.9881 29.3436 12.616 29.2943 12.2434 29.3072C11.8237 29.2671 11.4091 29.1852 11.0057 29.0625C10.6017 28.9367 10.1898 28.8377 9.77278 28.766C9.55631 28.7284 9.33984 28.6907 9.11867 28.6625L8.94925 28.6343L8.5822 28.5825C8.32808 28.5825 8.05984 28.5543 7.79631 28.5401L7.01984 28.446L6.21514 28.366L5.3822 28.3001L4.96337 28.2719C4.83646 28.2674 4.71033 28.25 4.5869 28.2201C4.25789 28.1549 3.94662 28.0202 3.67396 27.8248C3.5165 27.7326 3.39906 27.5849 3.34455 27.4107C3.31301 27.299 3.29873 27.1832 3.3022 27.0672C3.30978 27.0015 3.30978 26.9352 3.3022 26.8695C3.29266 26.8056 3.29266 26.7406 3.3022 26.6766C3.35022 26.3193 3.51578 25.9882 3.77279 25.7354C4.02514 25.4663 4.32508 25.2461 4.65749 25.086L4.80808 25.006L5.0622 24.9401C5.2222 24.8978 5.41043 24.8554 5.53278 24.8131L6.21984 24.5213L7.5422 23.9754L8.1822 23.7401L8.47867 23.6178L8.61514 23.566L8.69984 23.5331C10.9116 22.6578 13.0951 21.5095 15.2881 20.5119L22.6245 17.2507L27.1093 15.2272C29.3587 14.1919 31.6598 13.2413 33.8669 12.1495C34.7234 11.7307 35.5563 11.2789 36.3798 10.8178L38.8693 9.50953C39.2363 9.31659 39.5845 9.11424 39.9563 8.926C40.3281 8.73776 40.5822 8.61541 40.8222 8.50718C41.0301 8.42732 41.2441 8.36437 41.4622 8.31894C41.7346 8.25567 42.018 8.25567 42.2904 8.31894C42.3963 8.33847 42.5031 8.35261 42.6104 8.36129C42.7704 8.38482 42.761 8.59659 42.5822 8.89306C42.3206 9.29327 42.0037 9.65449 41.641 9.966C40.2293 11.0248 38.7798 12.0036 37.2645 12.9448C35.7116 13.806 34.1116 14.6107 32.4975 15.4013C31.2975 15.9801 30.1257 16.5684 28.874 17.1095L25.1893 18.6813L25.161 18.6201Z"
        fill="white" />
</svg>